# xmcd
#
# Track frame offsets:
# 150
# 13908
# 37574
# 61683
# 75759
# 93850
# 112761
# 124435
# 155833
# 179415
# 194257
# 212374
# 227915
#
# Disc length: 3236 seconds
#
#
# Revision: 0
# Processed by: cddbd v1.5.2PL0 Copyright (c) Steve Scherf et al.
# Submitted via: Nero 7, 11, 10, 0 
#
DISCID=960ca20d
DTITLE=Sweet Daddy Cool Breeze - Back For More
DYEAR=2004
DGENRE=Blues
TTITLE0=Big Sea Of The Blues
TTITLE1=Come Love Me Blues
TTITLE2=No More Tears
TTITLE3=Too High To Drive
TTITLE4=Blues Is Fun
TTITLE5=Doin' What We Choose
TTITLE6=Lets Rock
TTITLE7=Frank G. Rohan Blues
TTITLE8=Likin Stik
TTITLE9=NIN Ain't The Blues
TTITLE10=Lighten Up
TTITLE11=Boogie Time
TTITLE12=You Gonna Miss Me
EXTD=
EXTT0=Big Sea Of The Blues
EXTT1=Come Love Me Blues
EXTT2=No More Tears
EXTT3=Too High To Drive
EXTT4=Blues Is Fun
EXTT5=Doin' What We Choose
EXTT6=Lets Rock
EXTT7=Frank G. Rohan Blues
EXTT8=Likin Stik
EXTT9=NIN Ain't The Blues
EXTT10=Lighten Up
EXTT11=Boogie Time
EXTT12=You Gonna Miss Me
PLAYORDER=
